<?xml version="1.0" encoding="UTF-8"?>
<svg id="Calque_2" data-name="Calque 2" xmlns="http://www.w3.org/2000/svg" viewBox="0 0 776.33 537.7">
  <defs>
    <style>
      .cls-1 {
        fill: #fff;
      }

      .cls-1, .cls-2, .cls-3, .cls-4, .cls-5, .cls-6 {
        stroke: #1d1d1b;
        stroke-miterlimit: 10;
      }

      .cls-1, .cls-3 {
        stroke-width: 10px;
      }

      .cls-2 {
        stroke-width: 3px;
      }

      .cls-2, .cls-3, .cls-6 {
        fill: none;
      }

      .cls-4 {
        fill: #951b81;
        stroke-width: 14px;
      }

      .cls-5 {
        fill: #1d1d1b;
      }
    </style>
  </defs>
  <g id="Calque_1-2" data-name="Calque 1">
    <g>
      <path class="cls-4" d="M326.37,431.17c-.23-.31-.54-.52-.43-.89-29.78-40.61-47.37-90.73-47.37-144.96,0-135.52,109.86-245.38,245.38-245.38s245.38,109.86,245.38,245.38-109.86,245.38-245.38,245.38c-51.85,0-102.99-16.64-144.83-47.28-10.27-7.52-15.22-15.43-25.13-23.42-5.86-4.72-10.56-10.63-15.31-16.41-3.49-4.25-7.72-10.83-13.32-12.39-4-1.11-15.04,5.4-19.2,6.66-7.77,2.35-15.71,4.16-23.73,5.41-16.05,2.5-32.44,2.78-48.55.75-14.67-1.85-29.33-5.67-41.93-13.42s-23.01-19.74-26.7-34.06c-9.77-37.86,28.1-72.92,27.75-112.02-.07-7.83-1.86-15.95-6.8-22.03-3.28-4.04-7.75-6.95-12.36-9.35-37.17-19.3-83.72-7.19-118.73,15.81-11.04,7.25-45.55,16.4-47.98,31.93-2.53,16.19,36.82,12.24,44.99,11.63,27.76-2.1,48.45-22.08,78.1-22.05,2.1,0,4.44.17,5.89,1.69,9.81,10.32-15.83,48.46-19.61,58.81-6.66,18.26-11.39,37.45-10.59,57.02.27,6.7,1.21,13.47,3.85,19.64,4.04,9.44,11.76,16.8,19.82,23.17,20.93,16.55,40.44,23.93,66.52,27.88,58.31,8.83,117.93,10.42,176.28,1.81.53-.08,1.29-.05,1.8-.2"/>
      <circle class="cls-5" cx="439.71" cy="198.74" r="51.9"/>
      <circle class="cls-5" cx="601.2" cy="200.51" r="51.9"/>
      <path class="cls-5" d="M436.97,57.49c-13.57-20.43-34.63-35.16-57.51-44-22.87-8.84-47.56-12.13-72.07-12.95-3.07-.1-6.37-.11-8.92,1.6-2.17,1.45-3.44,3.9-4.54,6.27-10.21,21.89-14.81,46.37-13.24,70.47,1.81,27.8,14.88,58.09,41.24,67.11"/>
      <path class="cls-5" d="M726.91,148.42c17.58-16.65,28.19-39.22,32.67-62.35s3.18-46.89-.52-70c-.46-2.9-1.06-5.98-3.21-8.05-1.83-1.76-4.46-2.47-7-3.05-23.39-5.34-48.29-4.93-71.69,1.19-26.99,7.06-54.35,25.14-58.37,51.57l108.12,90.69Z"/>
      <path class="cls-3" d="M558.65,248.37c-1.19-.52-2.37-1.04-3.56-1.56,20.44,54.25-41.28,61.96-39.14,23.68-.48,8.53-5.71,15.8-11.89,18.45-6.18,2.65-13.04,1.24-19-2.2-4.01-2.31-7.89-5.79-9.72-11.03-3.15-9,.76-19.41,5.09-27.51-1.28,0-1.19,1.85-2.47,1.85"/>
      <path class="cls-2" d="M447.65,52.63c65.4,127.23,87.2,273.4,83.17,416.39-.57,20.39-1.73,41.17-9.03,60.21"/>
      <path class="cls-2" d="M407.74,71.56c23.91,42.11,41.53,87.79,52.09,135.05,19.8,88.68,14.58,180.79,9.24,271.5-.89,15.12-1.8,30.36-5.66,45"/>
      <path class="cls-2" d="M379.54,85.86c16.53,11.2,27.65,29.07,34.1,47.96,6.45,18.89,8.64,38.94,10.44,58.83,9.43,104.27,9.19,209.42-.69,313.65"/>
      <path class="cls-2" d="M353.99,105.51c18.18,38.77,20.58,82.8,22.61,125.58,3.89,81.79,7.48,164.37-6.72,245.01-.16.9.74-.91.12-.24"/>
      <path class="cls-2" d="M510.18,226.72c68.06-22.5,127.2-70.92,162.7-133.19"/>
      <path class="cls-2" d="M516.73,263.39c43.67-4.37,80.75-32.57,115.26-59.69,28.85-22.68,51.27-50.06,75.61-77.33,1.09-1.23,2.41-2.55,4.05-2.52s2.91,2.5,1.5,3.34"/>
      <path class="cls-2" d="M524.11,307.63c45.3-1.17,90.14-15.74,127.01-41.27,36.88-25.53,65.65-61.92,81.5-103.08"/>
      <path class="cls-2" d="M528.7,357.89c42.99-6.75,85.61-19.32,122.63-42.17,37.02-22.85,68.22-56.64,82.87-97.57,3.49-9.75,6.12-20.01,12-28.54"/>
      <path class="cls-2" d="M285.65,235.45c27,17,60.08,14.67,91.01,11.84"/>
      <path class="cls-2" d="M282.79,268.82c10.63,3.53,22.62,3.55,34.21,3.51,20.32-.08,40.65-.15,60.97-.23"/>
      <path class="cls-2" d="M282.79,313.32c31.65,6.49,64.64,8.18,96.97,4.97"/>
      <path class="cls-2" d="M293.58,359.38c28.55,4.16,57.35,6.58,86.18,7.25"/>
      <path class="cls-2" d="M504.91,40.76c23.97,28.63,42.29,61.96,53.61,97.54,6.4,20.11,10.56,41.87,4.98,62.22"/>
      <path class="cls-2" d="M560.21,42.67c17.81,15.62,28.61,38,34.17,61.03s6.29,46.91,6.81,70.59c.02.9-.04,1.97-.81,2.45s-1.98-.7-1.25-1.22"/>
      <path class="cls-2" d="M623.85,60.59c12.56,28.88,14.48,60.93,5.42,90.72"/>
      <path class="cls-2" d="M477.72,44.4c36.29,49.8,55.45,112.36,53.41,174.4"/>
      <path class="cls-2" d="M559.91,351.37c.67,57.06-1.06,114.15-5.17,171.07-.09,1.21.03,2.77,1.19,3.17"/>
      <path class="cls-2" d="M593.1,342.65c3.04,59.29.35,118.85-8,177.68"/>
      <path class="cls-2" d="M624.6,329.75c4.09,59.55-3.28,177.66-2.27,177.15"/>
      <path class="cls-2" d="M669.65,303.67c-1.7,64.14-8.02,128.19-18.9,191.68-.02.1-.03.21-.03.31"/>
      <path class="cls-2" d="M328.83,136.01c11.98.07,24.5.09,36.75.05-.7.02-1.4.04-2.1.05"/>
      <path class="cls-2" d="M314.93,160.13c1.19,3.43,6.2,4.87,10.56,5.62,14.86,2.57,30.26,3.17,45.37,1.77"/>
      <path class="cls-2" d="M299.74,189.61c23.99,8.37,49.67,11.57,74.91,9.35"/>
      <path class="cls-2" d="M289.83,218.8c24.78,8.58,52.57,9.68,79.63,10.65,2.84.1,6.73-.51,6.75-2.74"/>
      <path class="cls-2" d="M633.32,89.87c4.92-5.2,10.73-9.62,17.13-13.01"/>
      <path class="cls-2" d="M634.83,115.61c9.84-9.9,19.43-20.05,28.77-30.43.46-.51.39-1.28.47-1.96s.54-1.48,1.21-1.37.19,1.49-.25.97"/>
      <path class="cls-2" d="M296.46,377.46c25.29,11.99,53.89,16.98,81.76,14.25"/>
      <path class="cls-2" d="M314.93,413.98c20.31,4.14,41.08,6.72,61.95,7.71"/>
      <path class="cls-2" d="M342.41,444.75c10.08,8.74,21.07,9.57,31.32,2.38"/>
      <path class="cls-2" d="M667.12,338.36c23.22-16,43.44-35.5,63.53-54.91,5.54-5.35,11.09-10.73,15.95-16.65,2.89-3.51,16.5-18.16,17.72-22.44"/>
      <path class="cls-2" d="M666.46,376.56c28.94-13.93,56.88-29.45,83.6-46.45,5.72-3.64,11.64-7.63,14.27-13.38"/>
      <path class="cls-2" d="M661.82,416.83c28.33-3.93,58.26-8.56,80.37-27.43.54-.46,1.25-.96,1.88-.64"/>
      <path class="cls-2" d="M663.92,394.83c31.78-8.01,62.61-19.94,91.6-35.45"/>
      <path class="cls-2" d="M660.45,436.37c20.19-1.56,40.32-4.35,60.28-8.34"/>
      <path class="cls-2" d="M656.44,459.4c13.88-1.63,27.76-3.25,41.65-4.88.6-.07,1.33-.05,1.65.71"/>
      <path class="cls-6" d="M423.15,505.58c0,.89-.1,1.78-.27,2.65"/>
      <path class="cls-6" d="M522.13,528.7c-.41.41-.67.96-.75,1.53"/>
      <circle class="cls-1" cx="422.88" cy="189.61" r="14.26"/>
      <circle class="cls-1" cx="586.12" cy="189.61" r="14.26"/>
    </g>
  </g>
</svg>